<svg xmlns="http://www.w3.org/2000/svg" width="27" height="27" xmlns:v="https://vecta.io/nano"><path d="M0 0h27v27H0z" fill="#fff"/><path d="M1 1h1v1H1z"/><path d="M2 1h1v1H2z"/><path d="M3 1h1v1H3z"/><path d="M4 1h1v1H4z"/><path d="M5 1h1v1H5z"/><path d="M6 1h1v1H6z"/><path d="M7 1h1v1H7zm2 0h1v1H9z"/><path d="M10 1h1v1h-1z"/><path d="M11 1h1v1h-1z"/><path d="M12 1h1v1h-1zm3 0h1v1h-1zm2 0h1v1h-1zm2 0h1v1h-1z"/><path d="M20 1h1v1h-1z"/><path d="M21 1h1v1h-1z"/><path d="M22 1h1v1h-1z"/><path d="M23 1h1v1h-1z"/><path d="M24 1h1v1h-1z"/><path d="M25 1h1v1h-1zM1 2h1v1H1zm6 0h1v1H7zm5 0h1v1h-1z"/><path d="M13 2h1v1h-1zm4 0h1v1h-1zm2 0h1v1h-1zm6 0h1v1h-1zM1 3h1v1H1zm2 0h1v1H3z"/><path d="M4 3h1v1H4z"/><path d="M5 3h1v1H5zm2 0h1v1H7zm3 0h1v1h-1zm2 0h1v1h-1zm2 0h1v1h-1z"/><path d="M15 3h1v1h-1zm4 0h1v1h-1zm2 0h1v1h-1z"/><path d="M22 3h1v1h-1z"/><path d="M23 3h1v1h-1zm2 0h1v1h-1zM1 4h1v1H1zm2 0h1v1H3z"/><path d="M4 4h1v1H4z"/><path d="M5 4h1v1H5zm2 0h1v1H7zm4 0h1v1h-1z"/><path d="M12 4h1v1h-1zm2 0h1v1h-1zm2 0h1v1h-1z"/><path d="M17 4h1v1h-1zm2 0h1v1h-1zm2 0h1v1h-1z"/><path d="M22 4h1v1h-1z"/><path d="M23 4h1v1h-1zm2 0h1v1h-1zM1 5h1v1H1zm2 0h1v1H3z"/><path d="M4 5h1v1H4z"/><path d="M5 5h1v1H5zm2 0h1v1H7zm4 0h1v1h-1z"/><path d="M12 5h1v1h-1z"/><path d="M13 5h1v1h-1zm4 0h1v1h-1zm2 0h1v1h-1zm2 0h1v1h-1z"/><path d="M22 5h1v1h-1z"/><path d="M23 5h1v1h-1zm2 0h1v1h-1zM1 6h1v1H1zm6 0h1v1H7zm3 0h1v1h-1zm2 0h1v1h-1zm3 0h1v1h-1zm2 0h1v1h-1z"/><path d="M19 6h1v1h-1zm6 0h1v1h-1zM1 7h1v1H1z"/><path d="M2 7h1v1H2z"/><path d="M3 7h1v1H3z"/><path d="M4 7h1v1H4z"/><path d="M5 7h1v1H5z"/><path d="M6 7h1v1H6z"/><path d="M7 7h1v1H7zm2 0h1v1H9zm2 0h1v1h-1zm2 0h1v1h-1zm2 0h1v1h-1zm2 0h1v1h-1zm2 0h1v1h-1z"/><path d="M20 7h1v1h-1z"/><path d="M21 7h1v1h-1z"/><path d="M22 7h1v1h-1z"/><path d="M23 7h1v1h-1z"/><path d="M24 7h1v1h-1z"/><path d="M25 7h1v1h-1zM9 8h1v1H9z"/><path d="M10 8h1v1h-1zm3 0h1v1h-1z"/><path d="M14 8h1v1h-1z"/><path d="M15 8h1v1h-1zm2 0h1v1h-1zM1 9h1v1H1z"/><path d="M2 9h1v1H2zm2 0h1v1H4z"/><path d="M5 9h1v1H5zm2 0h1v1H7zm3 0h1v1h-1zm3 0h1v1h-1zm2 0h1v1h-1z"/><path d="M16 9h1v1h-1zm3 0h1v1h-1zm6 0h1v1h-1zM2 10h1v1H2z"/><path d="M9 10h1v1H9zm2 0h1v1h-1zm5 0h1v1h-1zm4 0h1v1h-1z"/><path d="M21 10h1v1h-1z"/><path d="M22 10h1v1h-1z"/><path d="M23 10h1v1h-1z"/><path d="M24 10h1v1h-1zM4 11h1v1H4z"/><path d="M5 11h1v1H5z"/><path d="M6 11h1v1H6z"/><path d="M7 11h1v1H7zm3 0h1v1h-1zm3 0h1v1h-1zm3 0h1v1h-1zm3 0h1v1h-1zm3 0h1v1h-1zm3 0h1v1h-1zM1 12h1v1H1zm2 0h1v1H3z"/><path d="M4 12h1v1H4z"/><path d="M5 12h1v1H5zm3 0h1v1H8z"/><path d="M9 12h1v1H9zm7 0h1v1h-1zm3 0h1v1h-1z"/><path d="M20 12h1v1h-1z"/><path d="M21 12h1v1h-1z"/><path d="M22 12h1v1h-1z"/><path d="M23 12h1v1h-1z"/><path d="M24 12h1v1h-1z"/><path d="M25 12h1v1h-1zM3 13h1v1H3z"/><path d="M4 13h1v1H4zm3 0h1v1H7zm3 0h1v1h-1z"/><path d="M11 13h1v1h-1zm6 0h1v1h-1zm2 0h1v1h-1z"/><path d="M20 13h1v1h-1zm5 0h1v1h-1zM1 14h1v1H1zm2 0h1v1H3z"/><path d="M4 14h1v1H4z"/><path d="M5 14h1v1H5z"/><path d="M6 14h1v1H6zm2 0h1v1H8zm2 0h1v1h-1z"/><path d="M11 14h1v1h-1zm2 0h1v1h-1zm2 0h1v1h-1z"/><path d="M16 14h1v1h-1zm5 0h1v1h-1zm3 0h1v1h-1zM1 15h1v1H1z"/><path d="M2 15h1v1H2zm3 0h1v1H5zm2 0h1v1H7z"/><path d="M8 15h1v1H8zm3 0h1v1h-1zm4 0h1v1h-1z"/><path d="M16 15h1v1h-1zm2 0h1v1h-1zm3 0h1v1h-1z"/><path d="M22 15h1v1h-1z"/><path d="M23 15h1v1h-1z"/><path d="M24 15h1v1h-1z"/><path d="M25 15h1v1h-1zM1 16h1v1H1zm3 0h1v1H4z"/><path d="M5 16h1v1H5z"/><path d="M6 16h1v1H6zm3 0h1v1H9zm2 0h1v1h-1zm2 0h1v1h-1zm2 0h1v1h-1z"/><path d="M16 16h1v1h-1z"/><path d="M17 16h1v1h-1zm2 0h1v1h-1z"/><path d="M20 16h1v1h-1zm3 0h1v1h-1zm2 0h1v1h-1zM1 17h1v1H1zm3 0h1v1H4zm3 0h1v1H7z"/><path d="M8 17h1v1H8zm3 0h1v1h-1z"/><path d="M12 17h1v1h-1z"/><path d="M13 17h1v1h-1z"/><path d="M14 17h1v1h-1z"/><path d="M15 17h1v1h-1zm2 0h1v1h-1z"/><path d="M18 17h1v1h-1z"/><path d="M19 17h1v1h-1z"/><path d="M20 17h1v1h-1z"/><path d="M21 17h1v1h-1zm2 0h1v1h-1z"/><path d="M24 17h1v1h-1zM9 18h1v1H9z"/><path d="M10 18h1v1h-1zm2 0h1v1h-1zm3 0h1v1h-1zm2 0h1v1h-1zm4 0h1v1h-1zm3 0h1v1h-1zM1 19h1v1H1z"/><path d="M2 19h1v1H2z"/><path d="M3 19h1v1H3z"/><path d="M4 19h1v1H4z"/><path d="M5 19h1v1H5z"/><path d="M6 19h1v1H6z"/><path d="M7 19h1v1H7zm6 0h1v1h-1zm4 0h1v1h-1zm2 0h1v1h-1zm2 0h1v1h-1z"/><path d="M22 19h1v1h-1zm3 0h1v1h-1zM1 20h1v1H1zm6 0h1v1H7zm3 0h1v1h-1z"/><path d="M11 20h1v1h-1z"/><path d="M12 20h1v1h-1zm2 0h1v1h-1z"/><path d="M15 20h1v1h-1z"/><path d="M16 20h1v1h-1z"/><path d="M17 20h1v1h-1zm4 0h1v1h-1zm4 0h1v1h-1zM1 21h1v1H1zm2 0h1v1H3z"/><path d="M4 21h1v1H4z"/><path d="M5 21h1v1H5zm2 0h1v1H7zm2 0h1v1H9zm3 0h1v1h-1z"/><path d="M13 21h1v1h-1zm2 0h1v1h-1z"/><path d="M16 21h1v1h-1z"/><path d="M17 21h1v1h-1z"/><path d="M18 21h1v1h-1z"/><path d="M19 21h1v1h-1z"/><path d="M20 21h1v1h-1z"/><path d="M21 21h1v1h-1z"/><path d="M22 21h1v1h-1zM1 22h1v1H1zm2 0h1v1H3z"/><path d="M4 22h1v1H4z"/><path d="M5 22h1v1H5zm2 0h1v1H7zm2 0h1v1H9zm4 0h1v1h-1z"/><path d="M14 22h1v1h-1z"/><path d="M15 22h1v1h-1zm3 0h1v1h-1z"/><path d="M19 22h1v1h-1zm3 0h1v1h-1zm2 0h1v1h-1z"/><path d="M25 22h1v1h-1zM1 23h1v1H1zm2 0h1v1H3z"/><path d="M4 23h1v1H4z"/><path d="M5 23h1v1H5zm2 0h1v1H7zm5 0h1v1h-1zm3 0h1v1h-1zm2 0h1v1h-1z"/><path d="M18 23h1v1h-1zm2 0h1v1h-1z"/><path d="M21 23h1v1h-1zm2 0h1v1h-1z"/><path d="M24 23h1v1h-1z"/><path d="M25 23h1v1h-1zM1 24h1v1H1zm6 0h1v1H7zm2 0h1v1H9zm2 0h1v1h-1z"/><path d="M12 24h1v1h-1z"/><path d="M13 24h1v1h-1zm5 0h1v1h-1zm2 0h1v1h-1z"/><path d="M21 24h1v1h-1zm2 0h1v1h-1z"/><path d="M24 24h1v1h-1z"/><path d="M25 24h1v1h-1zM1 25h1v1H1z"/><path d="M2 25h1v1H2z"/><path d="M3 25h1v1H3z"/><path d="M4 25h1v1H4z"/><path d="M5 25h1v1H5z"/><path d="M6 25h1v1H6z"/><path d="M7 25h1v1H7zm2 0h1v1H9zm3 0h1v1h-1z"/><path d="M13 25h1v1h-1zm4 0h1v1h-1zm2 0h1v1h-1zm3 0h1v1h-1zm3 0h1v1h-1z"/></svg>